<svg id="Layer_1" data-name="Layer 1" xmlns="http://www.w3.org/2000/svg" xmlns:xlink="http://www.w3.org/1999/xlink" viewBox="0 0 600 600"><defs><style>.cls-1{fill:none;}.cls-2{fill:#f8ec20;}.cls-3{opacity:0.5;}.cls-4{isolation:isolate;}.cls-5{clip-path:url(#clip-path);}.cls-6{fill:#bcbec0;}.cls-7{clip-path:url(#clip-path-2);}.cls-8{fill:#b2b2b2;}.cls-9{clip-path:url(#clip-path-3);}.cls-10{clip-path:url(#clip-path-4);}.cls-11{fill:#fff;}.cls-12{fill:#eb3e24;}.cls-13{clip-path:url(#clip-path-5);}.cls-14{fill:#fcfcfc;}.cls-15{fill:#7dc046;}.cls-16{clip-path:url(#clip-path-6);}.cls-17{fill:#6e54a3;}</style><clipPath id="clip-path"><polygon class="cls-1" points="311.57 537.61 377.03 373.46 460.52 420.24 395.06 584.39 311.57 537.61"/></clipPath><clipPath id="clip-path-2"><polygon class="cls-1" points="136.37 399.46 83.58 205.03 179.37 216.89 232.16 411.31 136.37 399.46"/></clipPath><clipPath id="clip-path-3"><polygon class="cls-1" points="267.41 261.61 294.98 69.85 408.24 81.17 380.68 272.93 267.41 261.61"/></clipPath><clipPath id="clip-path-4"><polygon class="cls-1" points="336.47 517.21 401.93 353.04 485.41 399.82 419.95 563.98 336.47 517.21"/></clipPath><clipPath id="clip-path-5"><polygon class="cls-1" points="161.26 379.05 108.46 184.62 204.26 196.47 257.05 390.91 161.26 379.05"/></clipPath><clipPath id="clip-path-6"><polygon class="cls-1" points="292.31 241.2 319.88 49.44 433.14 60.76 405.57 252.52 292.31 241.2"/></clipPath></defs><title>set</title><rect class="cls-2" width="600" height="600"/><g class="cls-3"><g class="cls-4"><g class="cls-5"><path class="cls-6" d="M367.38,525.74l-21.7-34.38,0,0h0l36.19-1.94,21.7,34.38,0,0h0l-36.19,2m22.84-57.26-21.71-34.39,0,0h0l36.19-1.94,21.7,34.38,0,0h0l-36.18,2m57.16-55.6-57.21-32.06c-7.26-4.07-15.87-.52-19.23,7.91L317.66,522.34c-3.36,8.44-.2,18.57,7,22.64l57.21,32c7.26,4.07,15.87.53,19.23-7.91l53.28-133.61c3.36-8.43.2-18.57-7.05-22.63"/><polyline class="cls-6" points="404.71 432.12 368.52 434.06 368.49 434.06 368.51 434.09 390.21 468.48 426.4 466.53 426.43 466.53 426.41 466.5 404.71 432.12"/><polyline class="cls-6" points="381.88 489.38 345.69 491.32 345.66 491.33 345.68 491.36 367.38 525.74 403.57 523.79 403.6 523.79 403.58 523.76 381.88 489.38"/></g></g></g><g class="cls-3"><g class="cls-4"><g class="cls-7"><path class="cls-8" d="M175.74,374c-17.28-2.13-33.3-11.29-35.79-20.44s9.51-14.85,26.79-12.71,33.32,11.3,35.8,20.45S193,376.16,175.74,374m-13.37-49.27c-17.29-2.14-33.31-11.29-35.8-20.45s9.51-14.84,26.79-12.7,33.32,11.29,35.8,20.45-9.51,14.84-26.79,12.7M149,275.48c-17.29-2.14-33.31-11.3-35.8-20.45s9.51-14.85,26.79-12.71,33.32,11.3,35.81,20.45-9.51,14.85-26.8,12.71m17.82-60.15-70.68-8.74c-6.94-.86-10.72,5.19-8.46,13.51l44.61,164.29c2.26,8.33,9.71,15.77,16.64,16.62l70.68,8.75c6.94.86,10.73-5.19,8.47-13.51L183.46,232c-2.26-8.32-9.71-15.76-16.65-16.62"/><path class="cls-8" d="M140,242.32c-17.28-2.14-29.28,3.55-26.79,12.71s18.51,18.31,35.8,20.45,29.28-3.55,26.8-12.71S157.27,244.46,140,242.32"/><path class="cls-8" d="M153.36,291.6c-17.28-2.14-29.28,3.55-26.79,12.7s18.51,18.31,35.8,20.45,29.28-3.55,26.79-12.7-18.51-18.31-35.8-20.45"/><path class="cls-8" d="M166.74,340.87c-17.28-2.14-29.28,3.55-26.79,12.71s18.51,18.31,35.79,20.44,29.29-3.54,26.8-12.7S184,343,166.74,340.87"/></g></g></g><g class="cls-3"><g class="cls-4"><g class="cls-9"><path class="cls-6" d="M353.28,166.35a39,39,0,0,0,6.19.13c4.5-.27,14.31-1.74,25.86-11.41-5.72,18.61-13.83,38.73-23,38.87-.23,0-.44,0-.65,0-2.19-.22-3.52-1.76-7-4.37-8.57-6.34-20.31-11.71-31.36-13l-.39,0-.36,0a40.57,40.57,0,0,0-6.31-.15c-4.51.27-14.31,1.74-25.87,11.41,5.73-18.6,13.85-38.72,23-38.86a4.61,4.61,0,0,1,.65,0c2.19.22,3.52,1.77,7,4.38,8.56,6.34,20.31,11.72,31.36,13l.38,0,.49.06m38.5-86.82-80.33-8a17.49,17.49,0,0,0-18.84,14.83l-22.83,158.8a15.76,15.76,0,0,0,14.1,18.13l80.33,8A17.48,17.48,0,0,0,383,256.45l22.83-158.8a15.75,15.75,0,0,0-14.09-18.12"/><path class="cls-6" d="M385.33,155.07c-11.55,9.67-21.36,11.14-25.86,11.41a39,39,0,0,1-6.19-.13l-.49-.06-.38,0c-11.05-1.29-22.8-6.67-31.36-13-3.52-2.61-4.85-4.16-7-4.38a4.61,4.61,0,0,0-.65,0c-9.19.14-17.31,20.26-23,38.86,11.56-9.67,21.36-11.14,25.87-11.41a40.57,40.57,0,0,1,6.31.15l.36,0,.39,0c11.05,1.29,22.79,6.66,31.36,13,3.52,2.61,4.85,4.15,7,4.37.21,0,.42,0,.65,0,9.2-.14,17.31-20.26,23-38.87"/></g></g></g><g class="cls-4"><g class="cls-10"><path class="cls-11" d="M392.28,505.32l-21.71-34.38,0,0h0l36.18-2,21.7,34.38,0,0h0l-36.18,1.94m22.82-57.25-21.7-34.39,0,0h0l36.18-1.94,21.7,34.38,0,0h0l-36.19,1.95m57.18-55.61L415.06,360.4c-7.26-4.06-15.86-.52-19.23,7.92L342.56,501.93c-3.36,8.44-.21,18.57,7,22.64l57.22,32.06c7.26,4.06,15.86.51,19.22-7.92L479.32,415.1c3.36-8.44.21-18.57-7-22.64"/><polyline class="cls-12" points="429.6 411.71 393.42 413.65 393.38 413.65 393.4 413.69 415.11 448.07 451.29 446.12 451.32 446.12 451.3 446.09 429.6 411.71"/><polyline class="cls-12" points="406.77 468.96 370.59 470.91 370.55 470.92 370.57 470.94 392.28 505.32 428.46 503.38 428.49 503.38 428.47 503.34 406.77 468.96"/></g></g><g class="cls-4"><g class="cls-13"><path class="cls-14" d="M200.64,353.61c-17.29-2.14-33.31-11.3-35.8-20.45s9.51-14.84,26.79-12.71,33.32,11.3,35.81,20.46-9.51,14.84-26.8,12.7m-13.38-49.27C170,302.2,154,293,151.46,283.88s9.51-14.84,26.8-12.7,33.31,11.3,35.8,20.45-9.51,14.85-26.8,12.71m-13.38-49.27c-17.28-2.14-33.31-11.3-35.79-20.45s9.51-14.84,26.79-12.71,33.31,11.3,35.8,20.45-9.51,14.85-26.8,12.71m17.83-60.15L121,186.17c-6.93-.86-10.72,5.2-8.46,13.52L157.16,364c2.27,8.32,9.72,15.77,16.66,16.63l70.68,8.74c6.94.86,10.72-5.19,8.46-13.52L208.35,211.55c-2.26-8.33-9.71-15.77-16.64-16.63"/><path class="cls-15" d="M164.88,221.91c-17.28-2.13-29.28,3.55-26.79,12.71s18.51,18.31,35.79,20.45,29.29-3.55,26.8-12.71-18.51-18.31-35.8-20.45"/><path class="cls-15" d="M178.26,271.18C161,269,149,274.74,151.46,283.88s18.52,18.32,35.8,20.46,29.28-3.55,26.8-12.71-18.51-18.31-35.8-20.45"/><path class="cls-15" d="M191.63,320.45c-17.28-2.13-29.27,3.55-26.79,12.71s18.51,18.31,35.8,20.45,29.28-3.55,26.8-12.7-18.52-18.32-35.81-20.46"/></g></g><g class="cls-4"><g class="cls-16"><path class="cls-11" d="M378.05,145.92a39.37,39.37,0,0,0,6.31.15c4.51-.27,14.31-1.74,25.87-11.42-5.73,18.61-13.84,38.74-23,38.88-.23,0-.44,0-.65,0-2.18-.22-3.51-1.76-7-4.37-8.57-6.34-20.31-11.71-31.36-13l-.39,0-.36,0a40.7,40.7,0,0,0-6.32-.15c-4.5.27-14.31,1.74-25.86,11.41,5.73-18.6,13.84-38.73,23-38.86a4.66,4.66,0,0,1,.65,0c2.18.22,3.51,1.76,7,4.37,8.56,6.34,20.3,11.72,31.35,13l.39,0,.36,0m38.62-86.8-80.33-8a17.48,17.48,0,0,0-18.83,14.83l-22.83,158.8a15.76,15.76,0,0,0,14.09,18.13l80.34,8A17.5,17.5,0,0,0,407.94,236l22.83-158.8a15.74,15.74,0,0,0-14.1-18.12"/><path class="cls-17" d="M410.23,134.65c-11.56,9.68-21.36,11.15-25.87,11.42a39.37,39.37,0,0,1-6.31-.15l-.36,0-.39,0c-11.05-1.29-22.79-6.67-31.35-13-3.53-2.61-4.86-4.15-7-4.37a4.66,4.66,0,0,0-.65,0c-9.2.13-17.31,20.26-23,38.86,11.55-9.67,21.36-11.14,25.86-11.41a40.7,40.7,0,0,1,6.32.15l.36,0,.39,0c11.05,1.3,22.79,6.67,31.36,13,3.52,2.61,4.85,4.15,7,4.37.21,0,.42,0,.65,0,9.2-.14,17.31-20.27,23-38.88"/></g></g></svg>